<?xml version="1.0" encoding="utf-8"?>
<!-- Generator: Adobe Illustrator 26.3.1, SVG Export Plug-In . SVG Version: 6.00 Build 0)  -->
<svg version="1.1" id="Layer_1" xmlns="http://www.w3.org/2000/svg" xmlns:xlink="http://www.w3.org/1999/xlink" x="0px" y="0px"
	 viewBox="0 0 160.2 83" style="enable-background:new 0 0 160.2 83;" xml:space="preserve">
<style type="text/css">
	.st0{fill:#060077;}
</style>
<g>
	<path class="st0" d="M12.1,4.4L12.1,4.4c7.2,0,13,5.8,13,13v22.5c0,1.9,1.6,3.5,3.5,3.5h4.9c7.2,0,13,5.8,13,13v0H24.2
		c-6.7,0-12.1-5.4-12.1-12.1V4.4z"/>
	<path class="st0" d="M49,4.4L49,4.4c7.2,0,13,5.8,13.1,13l0.1,22.1c0,2.6,1.3,3.9,3.9,3.9h4.8c2.6,0,3.8-1.3,3.9-3.9V4.4h0
		c7.3,0,13.2,5.9,13.2,13.2V43c-0.2,8.9-4.3,13.3-12.3,13.4H61.3c-8,0-12.1-4.3-12.3-12.8V4.4z"/>
	<path class="st0" d="M129.7,4.4l-11.1,46.1c-0.8,3.4-3.9,5.8-7.4,5.8h-3c-3.5,0-6.6-2.4-7.4-5.8L89.8,4.4h0.6
		c7.9,0,11.2,0.7,12.6,8.4l5.9,30.1c0.2,0.9,1.5,0.9,1.7,0l5.9-30.1c1.4-7.8,4.7-8.4,12.6-8.4H129.7z"/>
	<path class="st0" d="M146.7,17.3v39.1h0c-7.2,0-13-5.8-13-13v-39h0.2C140.9,4.4,146.7,10.2,146.7,17.3z"/>
	<path class="st0" d="M153.9,66.9H6.5c-0.8,0-1.5-0.7-1.5-1.5v-1.1h147.4c0.8,0,1.5,0.7,1.5,1.5V66.9z"/>
	<g>
		<path d="M18.4,77.5v-4.4h1c0.3,0,0.5,0,0.6,0c0.1,0,0.3,0.1,0.4,0.2c0.1,0.1,0.2,0.2,0.3,0.4c0.1,0.2,0.1,0.4,0.1,0.6
			c0,0.4-0.1,0.6-0.3,0.8c-0.2,0.2-0.5,0.3-0.9,0.3h-0.1l1.7,2.1h-0.7l-1.6-2.1h-0.1v2.1H18.4z M18.9,73.5V75h0.4
			c0.4,0,0.7-0.1,0.8-0.2c0.1-0.1,0.2-0.3,0.2-0.6c0-0.3-0.1-0.5-0.2-0.6c-0.1-0.1-0.4-0.2-0.8-0.2H18.9z"/>
		<path d="M24.7,77.5v-4.4h2.3v0.5h-1.8v1.3h1.8v0.5h-1.8V77h1.8v0.5H24.7z"/>
		<path d="M31,77.5v-4.4h0.5V77h1.7v0.5H31z"/>
		<path d="M38.3,72.9l2,4.6h-0.6l-0.6-1.4h-1.7l-0.6,1.4h-0.6L38.3,72.9z M38.3,74.1l-0.7,1.6H39L38.3,74.1z"/>
		<path d="M47.4,74.1c-0.2-0.2-0.4-0.4-0.7-0.5c-0.2-0.1-0.5-0.2-0.8-0.2c-0.2,0-0.5,0-0.7,0.1c-0.2,0.1-0.4,0.2-0.6,0.4
			c-0.2,0.2-0.3,0.4-0.4,0.6c-0.1,0.2-0.1,0.5-0.1,0.7c0,0.2,0,0.4,0.1,0.6c0.1,0.2,0.1,0.3,0.2,0.5c0.2,0.3,0.4,0.4,0.7,0.6
			c0.3,0.1,0.5,0.2,0.8,0.2c0.3,0,0.5-0.1,0.8-0.2c0.2-0.1,0.5-0.3,0.7-0.5v0.7c-0.2,0.2-0.5,0.3-0.7,0.4c-0.3,0.1-0.5,0.1-0.8,0.1
			c-0.2,0-0.5,0-0.7-0.1c-0.2-0.1-0.4-0.2-0.6-0.3c-0.3-0.2-0.6-0.5-0.7-0.8c-0.2-0.3-0.3-0.7-0.3-1.1c0-0.3,0.1-0.6,0.2-0.9
			c0.1-0.3,0.3-0.5,0.5-0.8c0.2-0.2,0.5-0.4,0.7-0.5S45.6,73,46,73c0.3,0,0.5,0,0.7,0.1c0.2,0.1,0.5,0.2,0.7,0.4V74.1z M45.2,78.8
			v-0.3c0.2,0,0.3,0.1,0.4,0.1c0.1,0,0.2,0,0.3,0c0.1,0,0.2,0,0.3-0.1c0.1,0,0.1-0.1,0.1-0.2c0-0.1,0-0.2-0.1-0.2
			c-0.1,0-0.2-0.1-0.3-0.1c0,0-0.1,0-0.1,0c0,0,0,0-0.1,0v-0.6h0.2v0.3H46c0.2,0,0.4,0,0.5,0.1c0.1,0.1,0.2,0.2,0.2,0.4
			c0,0.2-0.1,0.3-0.2,0.4c-0.1,0.1-0.3,0.1-0.6,0.1c-0.1,0-0.2,0-0.3,0C45.4,78.8,45.3,78.8,45.2,78.8z"/>
		<path d="M55.9,75.3c0,0.3-0.1,0.6-0.2,0.9c-0.1,0.3-0.3,0.5-0.5,0.7c-0.2,0.2-0.5,0.4-0.8,0.5c-0.3,0.1-0.6,0.2-0.9,0.2
			c-0.3,0-0.6-0.1-0.9-0.2c-0.3-0.1-0.5-0.3-0.8-0.5c-0.2-0.2-0.4-0.5-0.5-0.7c-0.1-0.3-0.2-0.6-0.2-0.9c0-0.3,0.1-0.6,0.2-0.9
			c0.1-0.3,0.3-0.5,0.5-0.7c0.2-0.2,0.5-0.4,0.8-0.5c0.3-0.1,0.6-0.2,0.9-0.2c0.3,0,0.6,0.1,0.9,0.2c0.3,0.1,0.5,0.3,0.8,0.5
			c0.2,0.2,0.4,0.5,0.5,0.7C55.8,74.7,55.9,75,55.9,75.3z M53.5,77.1c0.2,0,0.5,0,0.7-0.1c0.2-0.1,0.4-0.2,0.6-0.4
			c0.2-0.2,0.3-0.4,0.4-0.6c0.1-0.2,0.1-0.5,0.1-0.7c0-0.2,0-0.5-0.1-0.7c-0.1-0.2-0.2-0.4-0.4-0.6c-0.2-0.2-0.4-0.3-0.6-0.4
			c-0.2-0.1-0.4-0.1-0.7-0.1c-0.2,0-0.5,0-0.7,0.1c-0.2,0.1-0.4,0.2-0.6,0.4c-0.2,0.2-0.3,0.4-0.4,0.6c-0.1,0.2-0.1,0.5-0.1,0.7
			c0,0.2,0,0.5,0.1,0.7s0.2,0.4,0.4,0.6c0.2,0.2,0.4,0.3,0.6,0.4C53.1,77.1,53.3,77.1,53.5,77.1z M54.4,71.8c0,0.2-0.1,0.4-0.2,0.5
			c-0.1,0.1-0.2,0.2-0.4,0.2c0,0-0.1,0-0.1,0c0,0-0.1,0-0.1,0l-0.3-0.1c0,0-0.1,0-0.1,0c0,0,0,0-0.1,0c-0.1,0-0.1,0-0.2,0.1
			c0,0-0.1,0.1-0.1,0.2h-0.3c0-0.2,0.1-0.4,0.2-0.5c0.1-0.1,0.2-0.2,0.4-0.2c0,0,0.1,0,0.1,0c0,0,0.1,0,0.1,0l0.3,0.1
			c0,0,0.1,0,0.1,0s0,0,0.1,0c0.1,0,0.1,0,0.2-0.1c0,0,0.1-0.1,0.1-0.2H54.4z"/>
		<path d="M59.8,77.5v-4.4h2.3v0.5h-1.8v1.3h1.8v0.5h-1.8V77h1.8v0.5H59.8z"/>
		<path d="M67.7,75c0.3,0.1,0.5,0.3,0.6,0.5c0.1,0.2,0.2,0.4,0.2,0.7c0,0.4-0.1,0.7-0.4,1s-0.6,0.4-1,0.4c-0.3,0-0.6-0.1-0.9-0.3
			c-0.2-0.2-0.4-0.4-0.5-0.8l0.5-0.2c0.1,0.3,0.2,0.5,0.3,0.6s0.3,0.2,0.6,0.2c0.3,0,0.5-0.1,0.6-0.2c0.2-0.2,0.2-0.3,0.2-0.6
			c0-0.2-0.1-0.4-0.2-0.5c-0.1-0.1-0.3-0.3-0.5-0.4l-0.5-0.2c-0.3-0.1-0.5-0.3-0.7-0.5C66,74.6,66,74.3,66,74.1
			c0-0.3,0.1-0.6,0.3-0.8c0.2-0.2,0.5-0.3,0.9-0.3c0.3,0,0.5,0.1,0.7,0.2c0.2,0.1,0.3,0.3,0.5,0.5l-0.4,0.3
			c-0.1-0.2-0.2-0.3-0.3-0.4c-0.1-0.1-0.3-0.1-0.4-0.1c-0.2,0-0.4,0.1-0.5,0.2c-0.1,0.1-0.2,0.3-0.2,0.5c0,0.2,0,0.3,0.1,0.4
			c0.1,0.1,0.2,0.2,0.4,0.3L67.7,75z"/>
		<path d="M80.8,74.1c-0.2-0.2-0.4-0.4-0.7-0.5c-0.2-0.1-0.5-0.2-0.8-0.2c-0.2,0-0.5,0-0.7,0.1c-0.2,0.1-0.4,0.2-0.6,0.4
			c-0.2,0.2-0.3,0.4-0.4,0.6c-0.1,0.2-0.1,0.5-0.1,0.7c0,0.2,0,0.4,0.1,0.6c0.1,0.2,0.1,0.3,0.2,0.5c0.2,0.3,0.4,0.4,0.7,0.6
			c0.3,0.1,0.5,0.2,0.8,0.2c0.3,0,0.5-0.1,0.8-0.2c0.2-0.1,0.5-0.3,0.7-0.5v0.7c-0.2,0.2-0.5,0.3-0.7,0.4c-0.3,0.1-0.5,0.1-0.8,0.1
			c-0.2,0-0.5,0-0.7-0.1c-0.2-0.1-0.4-0.2-0.6-0.3c-0.3-0.2-0.6-0.5-0.7-0.8c-0.2-0.3-0.3-0.7-0.3-1.1c0-0.3,0.1-0.6,0.2-0.9
			c0.1-0.3,0.3-0.5,0.5-0.8c0.2-0.2,0.5-0.4,0.7-0.5s0.6-0.2,0.9-0.2c0.3,0,0.5,0,0.7,0.1c0.2,0.1,0.5,0.2,0.7,0.4V74.1z"/>
		<path d="M89.3,75.3c0,0.3-0.1,0.6-0.2,0.9c-0.1,0.3-0.3,0.5-0.5,0.7c-0.2,0.2-0.5,0.4-0.8,0.5c-0.3,0.1-0.6,0.2-0.9,0.2
			c-0.3,0-0.6-0.1-0.9-0.2c-0.3-0.1-0.5-0.3-0.8-0.5c-0.2-0.2-0.4-0.5-0.5-0.7c-0.1-0.3-0.2-0.6-0.2-0.9c0-0.3,0.1-0.6,0.2-0.9
			c0.1-0.3,0.3-0.5,0.5-0.7c0.2-0.2,0.5-0.4,0.8-0.5C86.4,73,86.7,73,87,73c0.3,0,0.6,0.1,0.9,0.2c0.3,0.1,0.5,0.3,0.8,0.5
			c0.2,0.2,0.4,0.5,0.5,0.7C89.3,74.7,89.3,75,89.3,75.3z M87,77.1c0.2,0,0.5,0,0.7-0.1c0.2-0.1,0.4-0.2,0.6-0.4
			c0.2-0.2,0.3-0.4,0.4-0.6c0.1-0.2,0.1-0.5,0.1-0.7c0-0.2,0-0.5-0.1-0.7c-0.1-0.2-0.2-0.4-0.4-0.6c-0.2-0.2-0.4-0.3-0.6-0.4
			c-0.2-0.1-0.4-0.1-0.7-0.1c-0.2,0-0.5,0-0.7,0.1c-0.2,0.1-0.4,0.2-0.6,0.4c-0.2,0.2-0.3,0.4-0.4,0.6c-0.1,0.2-0.1,0.5-0.1,0.7
			c0,0.2,0,0.5,0.1,0.7c0.1,0.2,0.2,0.4,0.4,0.6c0.2,0.2,0.4,0.3,0.6,0.4C86.5,77.1,86.7,77.1,87,77.1z"/>
		<path d="M95.3,77.7l-1.4-3.2l-0.6,3h-0.5l0.9-4.6l1.5,3.6l1.5-3.6l0.9,4.6h-0.5l-0.6-3L95.3,77.7z"/>
		<path d="M101.5,77.5v-4.4h2.3v0.5H102v1.3h1.8v0.5H102V77h1.8v0.5H101.5z"/>
		<path d="M107.8,77.5v-4.4h1c0.3,0,0.5,0,0.6,0c0.1,0,0.3,0.1,0.4,0.2c0.1,0.1,0.2,0.2,0.3,0.4c0.1,0.2,0.1,0.4,0.1,0.6
			c0,0.4-0.1,0.6-0.3,0.8s-0.5,0.3-0.9,0.3H109l1.7,2.1H110l-1.6-2.1h-0.1v2.1H107.8z M108.3,73.5V75h0.4c0.4,0,0.7-0.1,0.8-0.2
			c0.1-0.1,0.2-0.3,0.2-0.6c0-0.3-0.1-0.5-0.2-0.6c-0.1-0.1-0.4-0.2-0.8-0.2H108.3z"/>
		<path d="M117.7,74.1c-0.2-0.2-0.4-0.4-0.7-0.5c-0.2-0.1-0.5-0.2-0.8-0.2c-0.2,0-0.5,0-0.7,0.1c-0.2,0.1-0.4,0.2-0.6,0.4
			c-0.2,0.2-0.3,0.4-0.4,0.6c-0.1,0.2-0.1,0.5-0.1,0.7c0,0.2,0,0.4,0.1,0.6c0.1,0.2,0.1,0.3,0.2,0.5c0.2,0.3,0.4,0.4,0.7,0.6
			c0.3,0.1,0.5,0.2,0.8,0.2c0.3,0,0.5-0.1,0.8-0.2c0.2-0.1,0.5-0.3,0.7-0.5v0.7c-0.2,0.2-0.5,0.3-0.7,0.4c-0.3,0.1-0.5,0.1-0.8,0.1
			c-0.2,0-0.5,0-0.7-0.1c-0.2-0.1-0.4-0.2-0.6-0.3c-0.3-0.2-0.6-0.5-0.7-0.8c-0.2-0.3-0.3-0.7-0.3-1.1c0-0.3,0.1-0.6,0.2-0.9
			c0.1-0.3,0.3-0.5,0.5-0.8c0.2-0.2,0.5-0.4,0.7-0.5s0.6-0.2,0.9-0.2c0.3,0,0.5,0,0.7,0.1c0.2,0.1,0.5,0.2,0.7,0.4V74.1z"/>
		<path d="M121.7,77.5v-4.4h0.5v4.4H121.7z"/>
		<path d="M127.8,72.9l2,4.6h-0.6l-0.6-1.4h-1.7l-0.6,1.4h-0.6L127.8,72.9z M127.8,74.1l-0.7,1.6h1.4L127.8,74.1z"/>
		<path d="M133.3,77.5v-4.4h0.5v4.4H133.3z"/>
		<path d="M139.6,75c0.3,0.1,0.5,0.3,0.6,0.5c0.1,0.2,0.2,0.4,0.2,0.7c0,0.4-0.1,0.7-0.4,1s-0.6,0.4-1,0.4c-0.3,0-0.6-0.1-0.9-0.3
			c-0.2-0.2-0.4-0.4-0.5-0.8l0.5-0.2c0.1,0.3,0.2,0.5,0.3,0.6s0.3,0.2,0.6,0.2c0.3,0,0.5-0.1,0.6-0.2c0.2-0.2,0.2-0.3,0.2-0.6
			c0-0.2-0.1-0.4-0.2-0.5c-0.1-0.1-0.3-0.3-0.5-0.4l-0.5-0.2c-0.3-0.1-0.5-0.3-0.7-0.5c-0.1-0.2-0.2-0.4-0.2-0.7
			c0-0.3,0.1-0.6,0.3-0.8c0.2-0.2,0.5-0.3,0.9-0.3c0.3,0,0.5,0.1,0.7,0.2c0.2,0.1,0.3,0.3,0.5,0.5l-0.4,0.3
			c-0.1-0.2-0.2-0.3-0.3-0.4c-0.1-0.1-0.3-0.1-0.4-0.1c-0.2,0-0.4,0.1-0.5,0.2c-0.1,0.1-0.2,0.3-0.2,0.5c0,0.2,0,0.3,0.1,0.4
			s0.2,0.2,0.4,0.3L139.6,75z"/>
	</g>
</g>
</svg>
