<?xml version="1.0" encoding="utf-8"?>
<!-- Generator: Adobe Illustrator 26.3.1, SVG Export Plug-In . SVG Version: 6.00 Build 0)  -->
<svg version="1.1" id="Layer_1" xmlns="http://www.w3.org/2000/svg" xmlns:xlink="http://www.w3.org/1999/xlink" x="0px" y="0px"
	 viewBox="0 0 192 83" style="enable-background:new 0 0 192 83;" xml:space="preserve">
<style type="text/css">
	.st0{fill:#FFFFFF;}
	.st1{fill:#ED2224;}
</style>
<g>
	<g>
		<path class="st0" d="M102.14,30.38c1.32,0.66,2.34,1.59,3.06,2.78c0.72,1.19,1.08,2.57,1.08,4.13c0,1.55-0.36,2.92-1.08,4.12
			c-0.72,1.2-1.75,2.13-3.07,2.79c-1.33,0.66-2.86,0.99-4.61,0.99H87.4V29.38h10.12C99.28,29.38,100.82,29.71,102.14,30.38z
			 M100.85,40.67c0.86-0.8,1.29-1.92,1.29-3.38c0-1.46-0.43-2.59-1.29-3.4c-0.86-0.81-2.06-1.22-3.6-1.22h-5.78v9.19h5.78
			C98.79,41.86,99.99,41.46,100.85,40.67z"/>
		<path class="st0" d="M112.15,44.32c-1.31-0.69-2.35-1.66-3.12-2.89c-0.77-1.24-1.15-2.63-1.15-4.18c0-1.55,0.38-2.94,1.15-4.17
			c0.77-1.23,1.81-2.19,3.12-2.88c1.31-0.69,2.75-1.04,4.32-1.04c1.57,0,3.01,0.35,4.32,1.04c1.31,0.69,2.34,1.65,3.1,2.88
			c0.75,1.23,1.13,2.62,1.13,4.17c0,1.55-0.38,2.94-1.14,4.18c-0.76,1.24-1.79,2.2-3.1,2.89c-1.3,0.69-2.74,1.04-4.31,1.04
			C114.9,45.35,113.46,45.01,112.15,44.32z M119.67,40.58c0.8-0.84,1.2-1.95,1.2-3.33c0-1.4-0.4-2.51-1.2-3.34
			c-0.8-0.83-1.87-1.25-3.2-1.25c-1.35,0-2.43,0.41-3.23,1.24c-0.8,0.83-1.2,1.94-1.2,3.36c0,1.4,0.4,2.51,1.2,3.34
			c0.8,0.83,1.88,1.25,3.23,1.25C117.8,41.84,118.87,41.42,119.67,40.58z"/>
		<path class="st0" d="M130.04,44.79c-0.97-0.38-1.74-0.93-2.32-1.67c-0.58-0.74-0.89-1.62-0.92-2.66h4.33
			c0.06,0.59,0.28,1.03,0.64,1.34c0.36,0.31,0.84,0.46,1.43,0.46c0.6,0,1.08-0.13,1.43-0.39c0.35-0.26,0.52-0.63,0.52-1.09
			c0-0.39-0.14-0.71-0.42-0.97c-0.28-0.26-0.62-0.47-1.02-0.63c-0.4-0.17-0.98-0.35-1.73-0.56c-1.08-0.32-1.96-0.63-2.64-0.95
			c-0.68-0.32-1.27-0.78-1.76-1.4c-0.49-0.62-0.74-1.42-0.74-2.41c0-1.47,0.56-2.62,1.69-3.46c1.13-0.83,2.6-1.25,4.41-1.25
			c1.84,0,3.33,0.42,4.45,1.25c1.13,0.83,1.73,1.99,1.81,3.48h-4.41c-0.03-0.51-0.23-0.91-0.6-1.2c-0.37-0.29-0.83-0.44-1.4-0.44
			c-0.49,0-0.89,0.12-1.19,0.37c-0.3,0.25-0.45,0.6-0.45,1.07c0,0.51,0.25,0.91,0.76,1.19c0.51,0.29,1.3,0.59,2.38,0.92
			c1.08,0.35,1.96,0.68,2.63,0.99c0.67,0.32,1.26,0.77,1.75,1.37c0.49,0.6,0.74,1.37,0.74,2.32c0,0.9-0.24,1.72-0.73,2.45
			c-0.48,0.74-1.19,1.32-2.11,1.76c-0.92,0.44-2.01,0.65-3.26,0.65C132.11,45.35,131.01,45.16,130.04,44.79z"/>
	</g>
	<g>
		<g>
			<path class="st0" d="M99.8,56.83h1.82v0.52h-2.49v-4.89h0.68V56.83z"/>
			<path class="st0" d="M108.58,57.08c-0.4-0.21-0.71-0.51-0.94-0.89c-0.23-0.38-0.35-0.81-0.35-1.29c0-0.48,0.12-0.91,0.35-1.29
				c0.23-0.38,0.54-0.68,0.94-0.89c0.4-0.21,0.84-0.32,1.32-0.32c0.49,0,0.93,0.11,1.33,0.32c0.4,0.21,0.71,0.51,0.94,0.89
				c0.23,0.38,0.34,0.81,0.34,1.29c0,0.48-0.11,0.91-0.34,1.29c-0.23,0.38-0.54,0.67-0.94,0.89c-0.4,0.21-0.84,0.32-1.33,0.32
				C109.42,57.4,108.98,57.29,108.58,57.08z M110.88,56.61c0.29-0.16,0.52-0.39,0.68-0.68c0.17-0.29,0.25-0.64,0.25-1.02
				c0-0.39-0.08-0.74-0.25-1.03c-0.17-0.29-0.39-0.52-0.68-0.68c-0.29-0.16-0.62-0.24-0.98-0.24c-0.37,0-0.7,0.08-0.98,0.24
				c-0.29,0.16-0.52,0.38-0.68,0.68c-0.17,0.29-0.25,0.63-0.25,1.03c0,0.39,0.08,0.73,0.25,1.02c0.17,0.29,0.39,0.52,0.68,0.68
				c0.29,0.16,0.62,0.24,0.98,0.24C110.26,56.84,110.59,56.76,110.88,56.61z"/>
			<path class="st0" d="M122.54,53.88c-0.14-0.29-0.35-0.51-0.63-0.66c-0.27-0.16-0.59-0.24-0.95-0.24c-0.36,0-0.69,0.08-0.98,0.24
				c-0.29,0.16-0.52,0.38-0.68,0.67c-0.17,0.29-0.25,0.63-0.25,1.01c0,0.38,0.08,0.72,0.25,1.01c0.17,0.29,0.39,0.51,0.68,0.67
				c0.29,0.16,0.62,0.24,0.98,0.24c0.51,0,0.92-0.14,1.25-0.43c0.33-0.29,0.52-0.67,0.57-1.16h-2.07v-0.52h2.79v0.49
				c-0.04,0.4-0.17,0.77-0.4,1.1c-0.23,0.33-0.53,0.6-0.9,0.79c-0.37,0.19-0.79,0.29-1.24,0.29c-0.48,0-0.92-0.11-1.32-0.32
				c-0.4-0.21-0.71-0.51-0.94-0.89c-0.23-0.38-0.35-0.81-0.35-1.28c0-0.48,0.12-0.91,0.35-1.29c0.23-0.38,0.54-0.68,0.94-0.89
				c0.4-0.21,0.84-0.32,1.32-0.32c0.55,0,1.04,0.13,1.46,0.39c0.42,0.26,0.73,0.62,0.93,1.09H122.54z"/>
			<path class="st0" d="M130.68,51.4l-1.59,0.8v-0.48l1.59-0.88V51.4z M130.29,52.46v4.89h-0.68v-4.89H130.29z"/>
			<path class="st0" d="M137.39,57.23c-0.27-0.11-0.48-0.27-0.64-0.48c-0.15-0.2-0.23-0.44-0.24-0.71h0.72
				c0.02,0.23,0.13,0.42,0.3,0.58c0.18,0.16,0.43,0.23,0.77,0.23c0.32,0,0.58-0.08,0.76-0.23c0.19-0.15,0.28-0.35,0.28-0.59
				c0-0.19-0.05-0.34-0.16-0.46c-0.11-0.12-0.25-0.21-0.41-0.27c-0.16-0.06-0.38-0.13-0.66-0.2c-0.34-0.08-0.62-0.17-0.82-0.25
				c-0.21-0.08-0.38-0.22-0.53-0.4c-0.15-0.18-0.22-0.42-0.22-0.73c0-0.27,0.07-0.5,0.22-0.71c0.14-0.21,0.35-0.36,0.61-0.48
				c0.26-0.11,0.56-0.17,0.9-0.17c0.49,0,0.88,0.11,1.19,0.34c0.31,0.23,0.49,0.53,0.52,0.91h-0.74c-0.02-0.19-0.13-0.35-0.31-0.49
				c-0.18-0.14-0.43-0.21-0.73-0.21c-0.28,0-0.51,0.07-0.69,0.21c-0.18,0.14-0.27,0.33-0.27,0.58c0,0.18,0.05,0.32,0.16,0.43
				c0.11,0.11,0.24,0.2,0.39,0.26c0.16,0.06,0.38,0.13,0.66,0.2c0.34,0.09,0.62,0.18,0.83,0.26c0.21,0.09,0.39,0.22,0.54,0.4
				c0.15,0.18,0.22,0.42,0.22,0.73c0,0.24-0.07,0.46-0.2,0.67c-0.13,0.21-0.33,0.38-0.6,0.51c-0.26,0.13-0.57,0.2-0.93,0.2
				C137.96,57.4,137.66,57.34,137.39,57.23z"/>
			<path class="st0" d="M149.44,52.46v0.52h-1.41v4.37h-0.68v-4.37h-1.42v-0.52H149.44z"/>
			<path class="st0" d="M156.16,52.46v4.89h-0.68v-4.89H156.16z"/>
			<path class="st0" d="M162.61,53.61c0.23-0.38,0.54-0.68,0.93-0.89c0.39-0.22,0.83-0.32,1.31-0.32c0.57,0,1.06,0.13,1.48,0.39
				c0.42,0.26,0.73,0.62,0.92,1.09h-0.81c-0.14-0.29-0.35-0.52-0.62-0.68c-0.27-0.16-0.59-0.24-0.97-0.24
				c-0.36,0-0.69,0.08-0.98,0.24c-0.29,0.16-0.51,0.38-0.68,0.68c-0.16,0.29-0.25,0.63-0.25,1.03c0,0.39,0.08,0.73,0.25,1.02
				c0.16,0.29,0.39,0.52,0.68,0.68c0.29,0.16,0.61,0.24,0.98,0.24c0.38,0,0.7-0.08,0.97-0.23c0.27-0.16,0.48-0.38,0.62-0.68h0.81
				c-0.19,0.47-0.5,0.83-0.92,1.08c-0.42,0.25-0.92,0.38-1.48,0.38c-0.48,0-0.92-0.11-1.31-0.32c-0.39-0.21-0.71-0.51-0.93-0.89
				c-0.23-0.38-0.34-0.81-0.34-1.28C162.27,54.42,162.39,53.99,162.61,53.61z"/>
			<path class="st0" d="M176.55,56.26h-2.26l-0.42,1.09h-0.71l1.88-4.86h0.78l1.87,4.86h-0.71L176.55,56.26z M176.36,55.74
				l-0.94-2.47l-0.94,2.47H176.36z"/>
		</g>
		<g>
			<circle class="st1" cx="183.42" cy="55.54" r="1.33"/>
			<circle class="st1" cx="93.3" cy="55.54" r="1.33"/>
		</g>
	</g>
	<g>
		<polygon class="st0" points="145.08,29.63 142.37,29.63 142.37,45.19 150.67,45.19 150.67,43.13 145.08,43.13 		"/>
		<path class="st0" d="M164.72,30.45c-1.29-0.68-2.71-1.02-4.26-1.02c-1.54,0-2.95,0.34-4.24,1.02c-1.29,0.68-2.31,1.62-3.06,2.83
			c-0.75,1.21-1.13,2.57-1.13,4.1c0,1.52,0.38,2.89,1.13,4.11c0.75,1.22,1.77,2.16,3.06,2.84c1.29,0.68,2.7,1.02,4.24,1.02
			c1.55,0,2.97-0.34,4.26-1.02c1.29-0.68,2.31-1.63,3.05-2.84c0.74-1.22,1.12-2.59,1.12-4.11c0-1.52-0.37-2.89-1.12-4.1
			C167.02,32.07,166.01,31.13,164.72,30.45z M165.38,40.41c-0.48,0.87-1.15,1.54-2.01,2.01c-0.86,0.47-1.83,0.71-2.92,0.71
			c-1.09,0-2.07-0.24-2.92-0.71c-0.86-0.47-1.52-1.14-2.01-2.01c-0.48-0.87-0.72-1.88-0.72-3.03c0-1.15,0.24-2.16,0.72-3.02
			c0.48-0.87,1.15-1.53,2.01-1.99c0.86-0.46,1.83-0.69,2.92-0.69c1.09,0,2.07,0.23,2.92,0.69c0.86,0.46,1.52,1.13,2.01,1.99
			c0.48,0.87,0.72,1.87,0.72,3.02C166.11,38.53,165.86,39.54,165.38,40.41z"/>
		<path class="st0" d="M179.7,36.66v-1.45l-3.76,2.62l3.76,2.62V38.7h4.65c-0.21,1.33-0.77,2.38-1.69,3.16
			c-0.92,0.78-2.11,1.16-3.59,1.16c-1.09,0-2.07-0.23-2.92-0.69c-0.86-0.46-1.52-1.12-2.01-1.98c-0.48-0.86-0.72-1.85-0.72-2.97
			c0-1.12,0.24-2.1,0.72-2.95c0.48-0.85,1.15-1.51,2.01-1.97c0.86-0.46,1.83-0.69,2.92-0.69c1,0,1.88,0.2,2.64,0.59
			c0.76,0.4,1.35,0.98,1.78,1.76h3.25c-0.62-1.49-1.61-2.64-2.98-3.46c-1.37-0.81-2.93-1.22-4.69-1.22c-1.54,0-2.95,0.34-4.24,1.02
			c-1.29,0.68-2.31,1.62-3.06,2.83c-0.75,1.21-1.13,2.57-1.13,4.1c0,1.52,0.38,2.89,1.13,4.1c0.75,1.21,1.77,2.15,3.05,2.83
			c1.28,0.68,2.7,1.02,4.25,1.02c1.44,0,2.75-0.3,3.93-0.91c1.18-0.6,2.14-1.41,2.87-2.43c0.74-1.01,1.19-2.13,1.37-3.34v-1.99
			H179.7z"/>
	</g>
	<path class="st1" d="M71.54,22.99c-3.01-4.99-7.25-8.85-12.71-11.58C53.37,8.68,47.13,7.32,40.1,7.32H4.75v37.57v9.45h9.38h32.19
		v2.62l10.2-7.46l-10.2-7.22v2.62H14.13V16.68h27c5.14,0,9.65,0.97,13.56,2.9c3.9,1.93,6.76,4.95,8.86,8.52
		c2.1,3.57,3.3,7.45,3.3,12.17c0,4.72-1.33,8.67-3.43,12.24c-2.1,3.57-4.82,6.52-8.72,8.45c-3.9,1.93-8.42,2.9-13.56,2.9H29.22
		H15.29V61l-10.2,7.46l10.2,7.22v-2.47H40.1c7.03,0,13.27-1.36,18.73-4.09c5.46-2.73,9.7-6.59,12.71-11.58
		c3.01-4.99,4.52-10.75,4.52-17.27C76.06,33.74,74.55,27.98,71.54,22.99z"/>
</g>
</svg>
