<svg xmlns="http://www.w3.org/2000/svg" viewBox="0 0 1000 497.89" xmlns:v="https://vecta.io/nano"><g fill="#fb1787"><path d="M337.7 310.67c0 109.68-59.54 171.09-132.86 171.09-41.36 0-76.46-13.79-98.39-50.14l2.51 38.86h-95.9V16.12h100.27v176.74c21.94-30.71 53.9-47 92.75-47 72.08-.01 131.62 52.01 131.62 164.81zm-100.28 8.15c0-43.87-26.32-69.57-62.67-69.57s-63.92 24.44-63.92 69.57c0 48.26 27.57 72.7 63.92 72.7 35.1 0 62.67-25.07 62.67-72.7z"/><path d="M567.69 382.12v88.37c-13.16 6.27-33.84 11.28-64.55 11.28-80.84 0-125.34-47-125.34-123.46v-107.8h-57.66v-83.98c63.3-8.15 65.18-26.32 70.19-87.11h87.74v77.71h85.86v93.38h-85.86v80.85c0 45.12 22.56 59.54 52.64 59.54 13.16-.01 25.7-2.51 36.98-8.78z"/><path d="M846.57 279.97v190.52H748.8l.62-46.38c-14.41 35.72-47.63 57.66-92.75 57.66-56.41 0-94.01-33.84-94.01-92.75 0-62.05 46.37-96.51 125.97-96.51 26.32 0 44.5 2.51 57.66 6.89-1.88-41.36-25.7-52.65-67.06-52.65-36.98 0-68.31 7.52-97.77 25.07v-98.39c33.84-18.8 74.58-28.2 121.58-28.2 80.86-.01 143.53 36.34 143.53 134.74zM746.3 348.9c-11.28-4.39-23.82-5.64-36.35-5.64-28.83 0-47 10.65-47 31.34 0 18.18 11.91 28.83 34.47 28.83 20.05 0 48.88-13.16 48.88-54.53z"/></g><path d="M859.09 419.1c0-33.22 21.31-58.29 63.92-58.29s63.93 25.07 63.93 58.29c0 37.6-24.44 62.67-63.93 62.67-38.22 0-63.92-25.07-63.92-62.67z" fill="#baef37"/></svg>